<svg id="Layer_1" enable-background="new 0 0 256 256" height="512" viewBox="0 0 256 256" width="512" xmlns="http://www.w3.org/2000/svg"><circle cx="149.183" cy="38.293" fill="#4671c6" r="30.293"/><circle cx="83.09" cy="139.635" fill="#a4c9ff" r="27.036"/><circle cx="215.276" cy="139.635" fill="#a4c9ff" r="27.036"/><circle cx="33.929" cy="227.759" fill="#f9cfcf" r="20.241"/><circle cx="129.765" cy="227.759" fill="#f9cfcf" r="20.241"/><circle cx="215.276" cy="227.759" fill="#f9a7a7" r="20.241"/><path d="m44.538 230.759h-22.03c-1.657 0-3-1.343-3-3s1.343-3 3-3h22.03c1.657 0 3 1.343 3 3s-1.343 3-3 3z" fill="#ffea92"/><path d="m140.78 230.759h-22.031c-1.657 0-3-1.343-3-3s1.343-3 3-3h22.031c1.657 0 3 1.343 3 3s-1.342 3-3 3z" fill="#ffea92"/><path d="m226.292 230.759h-22.031c-1.657 0-3-1.343-3-3s1.343-3 3-3h22.031c1.657 0 3 1.343 3 3s-1.343 3-3 3z" fill="#ffea92"/><path d="m231.8 142.521h-33.047c-1.657 0-3-1.343-3-3s1.343-3 3-3h33.047c1.657 0 3 1.343 3 3s-1.343 3-3 3z" fill="#ffea92"/><path d="m99.613 142.521h-33.046c-1.657 0-3-1.343-3-3s1.343-3 3-3h33.046c1.657 0 3 1.343 3 3s-1.342 3-3 3z" fill="#ffea92"/><path d="m165.707 41.292h-33.047c-1.657 0-3-1.343-3-3s1.343-3 3-3h33.047c1.657 0 3 1.343 3 3s-1.343 3-3 3z" fill="#ffea92"/><g fill="#3762cc"><path d="m215.276 104.991c-1.104 0-2-.896-2-2v-12.375c0-1.327-1.079-2.406-2.406-2.406h-123.374c-1.326 0-2.405 1.08-2.405 2.406v12.375c0 1.104-.896 2-2 2s-2-.896-2-2v-12.375c0-3.532 2.873-6.406 6.405-6.406h123.374c3.532 0 6.406 2.874 6.406 6.406v12.375c0 1.105-.895 2-2 2z"/><path d="m81.706 187.038c-1.104 0-2-.896-2-2v-12.668c0-1.104.896-2 2-2s2 .896 2 2v12.668c0 1.105-.895 2-2 2z"/><path d="m128.521 203.819c-1.104 0-2-.896-2-2v-12.375c0-1.327-1.079-2.406-2.406-2.406h-84.819c-1.327 0-2.406 1.08-2.406 2.406v12.375c0 1.104-.896 2-2 2s-2-.896-2-2v-12.375c0-3.532 2.874-6.406 6.406-6.406h84.819c3.532 0 6.406 2.874 6.406 6.406v12.375c0 1.105-.895 2-2 2z"/><path d="m215.276 200.017c-1.104 0-2-.896-2-2v-25.647c0-1.104.896-2 2-2s2 .896 2 2v25.647c0 1.105-.895 2-2 2z"/><path d="m149.184 88.21c-1.104 0-2-.896-2-2v-12.668c0-1.104.896-2 2-2s2 .896 2 2v12.668c0 1.104-.896 2-2 2z"/><path d="m149.184 70.585c-17.807 0-32.293-14.486-32.293-32.292s14.486-32.293 32.293-32.293c17.806 0 32.292 14.486 32.292 32.292s-14.487 32.293-32.292 32.293zm0-60.585c-15.601 0-28.293 12.692-28.293 28.292s12.692 28.292 28.293 28.292 28.292-12.692 28.292-28.292-12.692-28.292-28.292-28.292z"/><path d="m83.091 168.671c-16.011 0-29.036-13.025-29.036-29.036s13.025-29.036 29.036-29.036 29.036 13.025 29.036 29.036-13.025 29.036-29.036 29.036zm0-54.072c-13.805 0-25.036 11.231-25.036 25.036s11.231 25.036 25.036 25.036 25.036-11.231 25.036-25.036-11.231-25.036-25.036-25.036z"/><path d="m215.276 168.671c-16.011 0-29.036-13.025-29.036-29.036s13.025-29.036 29.036-29.036 29.036 13.025 29.036 29.036-13.025 29.036-29.036 29.036zm0-54.072c-13.805 0-25.036 11.231-25.036 25.036s11.231 25.036 25.036 25.036 25.036-11.231 25.036-25.036-11.231-25.036-25.036-25.036z"/><path d="m33.929 250c-12.264 0-22.241-9.977-22.241-22.241s9.978-22.241 22.241-22.241 22.241 9.978 22.241 22.241-9.978 22.241-22.241 22.241zm0-40.482c-10.059 0-18.241 8.183-18.241 18.241s8.182 18.241 18.241 18.241 18.241-8.183 18.241-18.241-8.183-18.241-18.241-18.241z"/><path d="m129.765 250c-12.264 0-22.241-9.977-22.241-22.241s9.978-22.241 22.241-22.241 22.241 9.978 22.241 22.241-9.978 22.241-22.241 22.241zm0-40.482c-10.059 0-18.241 8.183-18.241 18.241s8.182 18.241 18.241 18.241 18.241-8.183 18.241-18.241-8.183-18.241-18.241-18.241z"/><path d="m215.276 250c-12.264 0-22.241-9.977-22.241-22.241s9.978-22.241 22.241-22.241 22.241 9.978 22.241 22.241-9.977 22.241-22.241 22.241zm0-40.482c-10.059 0-18.241 8.183-18.241 18.241s8.183 18.241 18.241 18.241 18.241-8.183 18.241-18.241-8.182-18.241-18.241-18.241z"/></g></svg>