<?xml version="1.0" encoding="iso-8859-1"?>
<!-- Generator: Adobe Illustrator 19.0.0, SVG Export Plug-In . SVG Version: 6.00 Build 0)  -->
<svg version="1.1" id="Layer_1" xmlns="http://www.w3.org/2000/svg" xmlns:xlink="http://www.w3.org/1999/xlink" x="0px" y="0px"
	 viewBox="0 0 512 512" style="enable-background:new 0 0 512 512;" xml:space="preserve">
<circle style="fill:#FF7069;" cx="256" cy="256" r="256"/>
<path style="fill:#FFE356;" d="M433.405,437.875l-19.803-84.783c0,0,67.73-65.186,60.098-148.663
	c-7.564-83.546-91.728-136.011-177.199-113.251c-85.402,22.76-99.567,91.178-99.98,102.455
	c-0.413,11.208,10.108,39.951,2.544,59.548c-7.564,19.597-34.793,50.334-32.249,59.479c2.544,9.145,25.923,10.727,25.923,10.727
	s0.275,8.87-2.819,10.727c-3.094,1.857-1.375,9.283,3.782,13.34c5.088,4.126,13.615,6.876,13.615,6.876s-9.833,2.2-8.526,9.145
	c1.238,6.945,4.745,10.452,12.033,10.727c7.289,0.344,9.214-3.163,10.452,0.619s2.063,4.126,2.063,4.126s-7.289,18.841-0.963,32.731
	s16.159,13.959,27.505,11.071c11.414-2.819,33.556-9.145,33.556-9.145l6.051,30.874c5.501,39.263-17.122,61.817-23.379,67.249
	c65.53-2.544,124.803-29.774,168.673-72.612c-0.756-0.688-1.306-1.1-1.444-1.306L433.405,437.875z"/>
<g>
	<path style="fill:#FCD34E;" d="M224.438,415.665c6.326,9.97,15.265,9.695,25.442,7.151c11.414-2.819,33.556-9.145,33.556-9.145
		l6.051,30.874c2.132,15.334,0,28.124-3.782,38.369l0,0c21.179-30.186,5.57-53.222,8.32-64.705
		c2.75-11.483,47.033-22.279,56.316-29.43c9.283-7.151,15.953-26.748,15.953-26.748s-9.283,14.234-19.185,22.898
		c-9.902,8.664-86.846,31.287-101.561,36.237c-13.959,4.676-20.56-4.47-21.179-5.432L224.438,415.665z"/>
	<path style="fill:#FCD34E;" d="M275.528,98.192c53.222-19.46,116.207-9.008,154.439,30.118c45.52,46.552,56.178,131.335-23.379,221
		l26.817,88.565l-19.803-84.783c0,0,67.73-65.186,60.098-148.663c-7.564-83.546-91.728-136.011-177.199-113.251
		C288.937,93.172,281.992,95.579,275.528,98.192z"/>
</g>
<path style="fill:#FEFEFE;" d="M163.447,339.133c0.894-1.306,1.925-2.475,2.957-3.576l5.088,5.02
	c-0.825,0.825-1.582,1.719-2.269,2.682c-3.644,5.088-4.882,11.139-3.988,16.847c0.825,4.882,3.232,9.558,7.082,13.065l-4.813,5.295
	c-5.088-4.607-8.251-10.727-9.352-17.19l0,0c-1.238-7.495,0.413-15.54,5.157-22.21L163.447,339.133z M116.62,286.461l5.088,5.02
	c-3.301,3.369-6.395,7.082-9.283,11.002c-14.921,20.766-20.01,45.658-16.159,69.037c3.301,20.078,13.133,39.057,29.017,53.428
	l-4.813,5.295c-17.053-15.54-27.711-35.962-31.287-57.554c-4.126-25.167,1.306-51.984,17.397-74.331
	c3.094-4.263,6.395-8.251,9.97-11.896H116.62z M135.186,304.752l5.088,5.02c-2.407,2.407-4.607,5.088-6.67,7.908
	c-10.727,14.921-14.371,32.799-11.621,49.646c2.338,14.44,9.489,28.055,20.835,38.438l-4.813,5.295
	c-12.652-11.483-20.491-26.611-23.104-42.564c-3.094-18.634,0.963-38.438,12.858-54.941c2.269-3.163,4.745-6.12,7.358-8.802H135.186
	z M151.345,320.705l5.088,5.02c-1.582,1.582-3.026,3.369-4.401,5.226c-7.082,9.833-9.489,21.66-7.633,32.731
	c1.582,9.489,6.257,18.497,13.752,25.304l-4.813,5.295c-8.733-7.908-14.165-18.428-16.021-29.43
	c-2.132-12.858,0.688-26.611,8.87-38.025c1.582-2.2,3.301-4.194,5.088-6.051L151.345,320.705z"/>
<g>
</g>
<g>
</g>
<g>
</g>
<g>
</g>
<g>
</g>
<g>
</g>
<g>
</g>
<g>
</g>
<g>
</g>
<g>
</g>
<g>
</g>
<g>
</g>
<g>
</g>
<g>
</g>
<g>
</g>
</svg>
